<?xml version="1.0" encoding="UTF-8" standalone="no"?>
<!DOCTYPE svg PUBLIC "-//W3C//DTD SVG 1.1//EN"
 "http://www.w3.org/Graphics/SVG/1.1/DTD/svg11.dtd">
<!-- Generated by graphviz version 2.40.1 (20161225.0304)
 -->
<!-- Title: G Pages: 1 -->
<svg width="456pt" height="1187pt"
 viewBox="0.00 0.00 455.69 1187.00" xmlns="http://www.w3.org/2000/svg" xmlns:xlink="http://www.w3.org/1999/xlink">
<g id="graph0" class="graph" transform="scale(1 1) rotate(0) translate(4 1183)">
<title>G</title>
<polygon fill="#ffffff" stroke="transparent" points="-4,4 -4,-1183 451.6861,-1183 451.6861,4 -4,4"/>
<g id="clust1" class="cluster">
<title>cluster_Global</title>
<path fill="none" stroke="#c0c0c0" d="M184.0582,-8C184.0582,-8 427.6861,-8 427.6861,-8 433.6861,-8 439.6861,-14 439.6861,-20 439.6861,-20 439.6861,-1159 439.6861,-1159 439.6861,-1165 433.6861,-1171 427.6861,-1171 427.6861,-1171 184.0582,-1171 184.0582,-1171 178.0582,-1171 172.0582,-1165 172.0582,-1159 172.0582,-1159 172.0582,-20 172.0582,-20 172.0582,-14 178.0582,-8 184.0582,-8"/>
<text text-anchor="middle" x="305.8721" y="-1158.2" font-family="Times,serif" font-size="11.00" fill="#c0c0c0">Global</text>
</g>
<g id="clust2" class="cluster">
<title>cluster_\billythekid</title>
<path fill="none" stroke="#c0c0c0" d="M192.0582,-16C192.0582,-16 419.6861,-16 419.6861,-16 425.6861,-16 431.6861,-22 431.6861,-28 431.6861,-28 431.6861,-1132 431.6861,-1132 431.6861,-1138 425.6861,-1144 419.6861,-1144 419.6861,-1144 192.0582,-1144 192.0582,-1144 186.0582,-1144 180.0582,-1138 180.0582,-1132 180.0582,-1132 180.0582,-28 180.0582,-28 180.0582,-22 186.0582,-16 192.0582,-16"/>
<text text-anchor="middle" x="305.8721" y="-1131.2" font-family="Times,serif" font-size="11.00" fill="#c0c0c0">billythekid</text>
</g>
<g id="clust3" class="cluster">
<title>cluster_\billythekid\v12finance</title>
<path fill="none" stroke="#c0c0c0" d="M200.0582,-24C200.0582,-24 411.6861,-24 411.6861,-24 417.6861,-24 423.6861,-30 423.6861,-36 423.6861,-36 423.6861,-1105 423.6861,-1105 423.6861,-1111 417.6861,-1117 411.6861,-1117 411.6861,-1117 200.0582,-1117 200.0582,-1117 194.0582,-1117 188.0582,-1111 188.0582,-1105 188.0582,-1105 188.0582,-36 188.0582,-36 188.0582,-30 194.0582,-24 200.0582,-24"/>
<text text-anchor="middle" x="305.8721" y="-1104.2" font-family="Times,serif" font-size="11.00" fill="#c0c0c0">v12finance</text>
</g>
<g id="clust4" class="cluster">
<title>cluster_\billythekid\v12finance\models</title>
<path fill="none" stroke="#c0c0c0" d="M208.0582,-78C208.0582,-78 403.6861,-78 403.6861,-78 409.6861,-78 415.6861,-84 415.6861,-90 415.6861,-90 415.6861,-1078 415.6861,-1078 415.6861,-1084 409.6861,-1090 403.6861,-1090 403.6861,-1090 208.0582,-1090 208.0582,-1090 202.0582,-1090 196.0582,-1084 196.0582,-1078 196.0582,-1078 196.0582,-90 196.0582,-90 196.0582,-84 202.0582,-78 208.0582,-78"/>
<text text-anchor="middle" x="305.8721" y="-1077.2" font-family="Times,serif" font-size="11.00" fill="#c0c0c0">models</text>
</g>
<g id="clust5" class="cluster">
<title>cluster_\billythekid\v12finance\models\exceptions</title>
<path fill="none" stroke="#c0c0c0" d="M219.3587,-884C219.3587,-884 392.3855,-884 392.3855,-884 398.3855,-884 404.3855,-890 404.3855,-896 404.3855,-896 404.3855,-1051 404.3855,-1051 404.3855,-1057 398.3855,-1063 392.3855,-1063 392.3855,-1063 219.3587,-1063 219.3587,-1063 213.3587,-1063 207.3587,-1057 207.3587,-1051 207.3587,-1051 207.3587,-896 207.3587,-896 207.3587,-890 213.3587,-884 219.3587,-884"/>
<text text-anchor="middle" x="305.8721" y="-1050.2" font-family="Times,serif" font-size="11.00" fill="#c0c0c0">exceptions</text>
</g>
<g id="clust6" class="cluster">
<title>cluster_\billythekid\v12finance\models\requests</title>
<path fill="none" stroke="#c0c0c0" d="M219.3587,-589C219.3587,-589 392.3855,-589 392.3855,-589 398.3855,-589 404.3855,-595 404.3855,-601 404.3855,-601 404.3855,-864 404.3855,-864 404.3855,-870 398.3855,-876 392.3855,-876 392.3855,-876 219.3587,-876 219.3587,-876 213.3587,-876 207.3587,-870 207.3587,-864 207.3587,-864 207.3587,-601 207.3587,-601 207.3587,-595 213.3587,-589 219.3587,-589"/>
<text text-anchor="middle" x="305.8721" y="-863.2" font-family="Times,serif" font-size="11.00" fill="#c0c0c0">requests</text>
</g>
<g id="clust7" class="cluster">
<title>cluster_\billythekid\v12finance\models\responses</title>
<path fill="none" stroke="#c0c0c0" d="M216.0582,-348C216.0582,-348 395.6861,-348 395.6861,-348 401.6861,-348 407.6861,-354 407.6861,-360 407.6861,-360 407.6861,-569 407.6861,-569 407.6861,-575 401.6861,-581 395.6861,-581 395.6861,-581 216.0582,-581 216.0582,-581 210.0582,-581 204.0582,-575 204.0582,-569 204.0582,-569 204.0582,-360 204.0582,-360 204.0582,-354 210.0582,-348 216.0582,-348"/>
<text text-anchor="middle" x="305.8721" y="-568.2" font-family="Times,serif" font-size="11.00" fill="#c0c0c0">responses</text>
</g>
<!-- \\billythekid\\v12finance\\models\\exceptions\\InvalidTelephoneException -->
<g id="node1" class="node">
<title>\\billythekid\\v12finance\\models\\exceptions\\InvalidTelephoneException</title>
<polygon fill="none" stroke="#000000" points="396.399,-1036 215.3453,-1036 215.3453,-1000 396.399,-1000 396.399,-1036"/>
<text text-anchor="middle" x="305.8721" y="-1014.7" font-family="Courier,monospace" font-size="11.00" fill="#000000">InvalidTelephoneException</text>
</g>
<!-- \\Exception -->
<g id="node19" class="node">
<title>\\Exception</title>
<ellipse fill="none" stroke="#000000" cx="70.0291" cy="-964" rx="40.6162" ry="18"/>
<text text-anchor="middle" x="70.0291" y="-959.8" font-family="Times,serif" font-size="14.00" fill="#c0c0c0">xception</text>
</g>
<!-- \\billythekid\\v12finance\\models\\exceptions\\InvalidTelephoneException&#45;&gt;\\Exception -->
<g id="edge1" class="edge">
<title>\\billythekid\\v12finance\\models\\exceptions\\InvalidTelephoneException&#45;&gt;\\Exception</title>
<path fill="none" stroke="#000000" d="M215.0184,-1000.4283C200.615,-997.4239 185.9071,-994.2266 172.0582,-991 153.0244,-986.5655 132.14,-981.1392 114.251,-976.3174"/>
<polygon fill="none" stroke="#000000" points="114.945,-972.8792 104.3773,-973.6359 113.1104,-979.6345 114.945,-972.8792"/>
</g>
<!-- \\billythekid\\v12finance\\models\\exceptions\\InvalidUpdateException -->
<g id="node2" class="node">
<title>\\billythekid\\v12finance\\models\\exceptions\\InvalidUpdateException</title>
<polygon fill="none" stroke="#000000" points="386.5959,-982 225.1483,-982 225.1483,-946 386.5959,-946 386.5959,-982"/>
<text text-anchor="middle" x="305.8721" y="-960.7" font-family="Courier,monospace" font-size="11.00" fill="#000000">InvalidUpdateException</text>
</g>
<!-- \\billythekid\\v12finance\\models\\exceptions\\InvalidUpdateException&#45;&gt;\\Exception -->
<g id="edge5" class="edge">
<title>\\billythekid\\v12finance\\models\\exceptions\\InvalidUpdateException&#45;&gt;\\Exception</title>
<path fill="none" stroke="#000000" d="M225.0383,-964C190.5664,-964 151.3868,-964 121.042,-964"/>
<polygon fill="none" stroke="#000000" points="120.6994,-960.5001 110.6993,-964 120.6993,-967.5001 120.6994,-960.5001"/>
</g>
<!-- \\billythekid\\v12finance\\models\\exceptions\\InvalidDocumentException -->
<g id="node3" class="node">
<title>\\billythekid\\v12finance\\models\\exceptions\\InvalidDocumentException</title>
<polygon fill="none" stroke="#000000" points="393.2984,-928 218.4458,-928 218.4458,-892 393.2984,-892 393.2984,-928"/>
<text text-anchor="middle" x="305.8721" y="-906.7" font-family="Courier,monospace" font-size="11.00" fill="#000000">InvalidDocumentException</text>
</g>
<!-- \\billythekid\\v12finance\\models\\exceptions\\InvalidDocumentException&#45;&gt;\\Exception -->
<g id="edge6" class="edge">
<title>\\billythekid\\v12finance\\models\\exceptions\\InvalidDocumentException&#45;&gt;\\Exception</title>
<path fill="none" stroke="#000000" d="M218.6123,-926.8247C203.0723,-930.0435 187.0612,-933.5045 172.0582,-937 153.0244,-941.4345 132.14,-946.8608 114.251,-951.6826"/>
<polygon fill="none" stroke="#000000" points="113.1104,-948.3655 104.3773,-954.3641 114.945,-955.1208 113.1104,-948.3655"/>
</g>
<!-- \\billythekid\\v12finance\\models\\requests\\ApplicationRequest -->
<g id="node4" class="node">
<title>\\billythekid\\v12finance\\models\\requests\\ApplicationRequest</title>
<polygon fill="none" stroke="#000000" points="373.1916,-849 238.5527,-849 238.5527,-813 373.1916,-813 373.1916,-849"/>
<text text-anchor="middle" x="305.8721" y="-827.7" font-family="Courier,monospace" font-size="11.00" fill="#000000">ApplicationRequest</text>
</g>
<!-- \\JsonSerializable -->
<g id="node20" class="node">
<title>\\JsonSerializable</title>
<ellipse fill="none" stroke="#000000" cx="70.0291" cy="-455" rx="70.0582" ry="18"/>
<text text-anchor="middle" x="70.0291" y="-450.8" font-family="Times,serif" font-size="14.00" fill="#c0c0c0">\JsonSerializable</text>
</g>
<!-- \\billythekid\\v12finance\\models\\requests\\ApplicationRequest&#45;&gt;\\JsonSerializable -->
<g id="edge7" class="edge">
<title>\\billythekid\\v12finance\\models\\requests\\ApplicationRequest&#45;&gt;\\JsonSerializable</title>
<path fill="none" stroke="#000000" stroke-dasharray="1,5" d="M238.5365,-831.2394C214.9693,-828.0304 189.9523,-820.429 172.0582,-804 123.8596,-759.7479 86.8163,-558.3083 74.4678,-483.2754"/>
<polygon fill="none" stroke="#000000" points="77.8824,-482.4666 72.8267,-473.1559 70.9727,-483.5872 77.8824,-482.4666"/>
</g>
<!-- \\billythekid\\v12finance\\models\\requests\\ApplicationUpdateRequest -->
<g id="node5" class="node">
<title>\\billythekid\\v12finance\\models\\requests\\ApplicationUpdateRequest</title>
<polygon fill="none" stroke="#000000" points="393.2984,-795 218.4458,-795 218.4458,-759 393.2984,-759 393.2984,-795"/>
<text text-anchor="middle" x="305.8721" y="-773.7" font-family="Courier,monospace" font-size="11.00" fill="#000000">ApplicationUpdateRequest</text>
</g>
<!-- \\billythekid\\v12finance\\models\\requests\\ApplicationUpdateRequest&#45;&gt;\\JsonSerializable -->
<g id="edge10" class="edge">
<title>\\billythekid\\v12finance\\models\\requests\\ApplicationUpdateRequest&#45;&gt;\\JsonSerializable</title>
<path fill="none" stroke="#000000" stroke-dasharray="1,5" d="M218.462,-772.7919C201.56,-768.4765 185.0826,-761.3878 172.0582,-750 130.6222,-713.7708 90.7043,-549.2978 75.9843,-482.9114"/>
<polygon fill="none" stroke="#000000" points="79.4012,-482.1528 73.8418,-473.1337 72.5634,-483.6511 79.4012,-482.1528"/>
</g>
<!-- \\billythekid\\v12finance\\models\\requests\\FinanceProductListRequest -->
<g id="node6" class="node">
<title>\\billythekid\\v12finance\\models\\requests\\FinanceProductListRequest</title>
<polygon fill="none" stroke="#000000" points="396.399,-741 215.3453,-741 215.3453,-705 396.399,-705 396.399,-741"/>
<text text-anchor="middle" x="305.8721" y="-719.7" font-family="Courier,monospace" font-size="11.00" fill="#000000">FinanceProductListRequest</text>
</g>
<!-- \\billythekid\\v12finance\\models\\requests\\FinanceProductListRequest&#45;&gt;\\JsonSerializable -->
<g id="edge14" class="edge">
<title>\\billythekid\\v12finance\\models\\requests\\FinanceProductListRequest&#45;&gt;\\JsonSerializable</title>
<path fill="none" stroke="#000000" stroke-dasharray="1,5" d="M215.217,-717.0979C199.6098,-712.7767 184.4498,-706.1175 172.0582,-696 104.8651,-641.1382 81.1471,-534.0646 73.4306,-483.1698"/>
<polygon fill="none" stroke="#000000" points="76.8864,-482.6107 72.0169,-473.2012 69.9557,-483.5935 76.8864,-482.6107"/>
</g>
<!-- \\billythekid\\v12finance\\models\\requests\\DownloadDocumentRequest -->
<g id="node7" class="node">
<title>\\billythekid\\v12finance\\models\\requests\\DownloadDocumentRequest</title>
<polygon fill="none" stroke="#000000" points="389.6969,-687 222.0473,-687 222.0473,-651 389.6969,-651 389.6969,-687"/>
<text text-anchor="middle" x="305.8721" y="-665.7" font-family="Courier,monospace" font-size="11.00" fill="#000000">DownloadDocumentRequest</text>
</g>
<!-- \\billythekid\\v12finance\\models\\requests\\DownloadDocumentRequest&#45;&gt;\\JsonSerializable -->
<g id="edge15" class="edge">
<title>\\billythekid\\v12finance\\models\\requests\\DownloadDocumentRequest&#45;&gt;\\JsonSerializable</title>
<path fill="none" stroke="#000000" stroke-dasharray="1,5" d="M221.9402,-663.577C204.2404,-659.4087 186.5567,-652.6873 172.0582,-642 117.8569,-602.0465 89.1442,-524.335 77.0807,-482.7827"/>
<polygon fill="none" stroke="#000000" points="80.4226,-481.7364 74.3671,-473.0427 73.6794,-483.6152 80.4226,-481.7364"/>
</g>
<!-- \\billythekid\\v12finance\\models\\requests\\ApplicationStatusRequest -->
<g id="node8" class="node">
<title>\\billythekid\\v12finance\\models\\requests\\ApplicationStatusRequest</title>
<polygon fill="none" stroke="#000000" points="393.2984,-633 218.4458,-633 218.4458,-597 393.2984,-597 393.2984,-633"/>
<text text-anchor="middle" x="305.8721" y="-611.7" font-family="Courier,monospace" font-size="11.00" fill="#000000">ApplicationStatusRequest</text>
</g>
<!-- \\billythekid\\v12finance\\models\\requests\\ApplicationStatusRequest&#45;&gt;\\JsonSerializable -->
<g id="edge17" class="edge">
<title>\\billythekid\\v12finance\\models\\requests\\ApplicationStatusRequest&#45;&gt;\\JsonSerializable</title>
<path fill="none" stroke="#000000" stroke-dasharray="1,5" d="M218.571,-604.4932C202.3094,-600.0779 186.0514,-593.8308 172.0582,-585 131.5551,-559.4395 100.4906,-511.9364 83.7778,-481.9762"/>
<polygon fill="none" stroke="#000000" points="86.7072,-480.0361 78.862,-472.9153 80.5543,-483.3742 86.7072,-480.0361"/>
</g>
<!-- \\billythekid\\v12finance\\models\\responses\\ApplicationStatusResponse -->
<g id="node9" class="node">
<title>\\billythekid\\v12finance\\models\\responses\\ApplicationStatusResponse</title>
<polygon fill="none" stroke="#000000" points="396.399,-554 215.3453,-554 215.3453,-518 396.399,-518 396.399,-554"/>
<text text-anchor="middle" x="305.8721" y="-532.7" font-family="Courier,monospace" font-size="11.00" fill="#000000">ApplicationStatusResponse</text>
</g>
<!-- \\billythekid\\v12finance\\models\\responses\\ApplicationStatusResponse&#45;&gt;\\JsonSerializable -->
<g id="edge11" class="edge">
<title>\\billythekid\\v12finance\\models\\responses\\ApplicationStatusResponse&#45;&gt;\\JsonSerializable</title>
<path fill="none" stroke="#000000" stroke-dasharray="1,5" d="M215.2867,-521.4134C200.639,-518.0056 185.7848,-513.9011 172.0582,-509 148.9209,-500.7389 124.5471,-488.0073 105.4264,-476.981"/>
<polygon fill="none" stroke="#000000" points="107.1587,-473.9394 96.7629,-471.895 103.6148,-479.976 107.1587,-473.9394"/>
</g>
<!-- \\billythekid\\v12finance\\models\\responses\\FinanceProductListResponse -->
<g id="node10" class="node">
<title>\\billythekid\\v12finance\\models\\responses\\FinanceProductListResponse</title>
<polygon fill="none" stroke="#000000" points="399.5004,-500 212.2438,-500 212.2438,-464 399.5004,-464 399.5004,-500"/>
<text text-anchor="middle" x="305.8721" y="-478.7" font-family="Courier,monospace" font-size="11.00" fill="#000000">FinanceProductListResponse</text>
</g>
<!-- \\billythekid\\v12finance\\models\\responses\\FinanceProductListResponse&#45;&gt;\\JsonSerializable -->
<g id="edge12" class="edge">
<title>\\billythekid\\v12finance\\models\\responses\\FinanceProductListResponse&#45;&gt;\\JsonSerializable</title>
<path fill="none" stroke="#000000" stroke-dasharray="1,5" d="M211.983,-471.2513C189.4718,-468.6741 165.7403,-465.9573 144.2611,-463.4983"/>
<polygon fill="none" stroke="#000000" points="144.5726,-460.0112 134.2393,-462.351 143.7763,-466.9658 144.5726,-460.0112"/>
</g>
<!-- \\billythekid\\v12finance\\models\\responses\\DownloadDocumentResult -->
<g id="node11" class="node">
<title>\\billythekid\\v12finance\\models\\responses\\DownloadDocumentResult</title>
<polygon fill="none" stroke="#000000" points="386.5959,-446 225.1483,-446 225.1483,-410 386.5959,-410 386.5959,-446"/>
<text text-anchor="middle" x="305.8721" y="-424.7" font-family="Courier,monospace" font-size="11.00" fill="#000000">DownloadDocumentResult</text>
</g>
<!-- \\billythekid\\v12finance\\models\\responses\\DownloadDocumentResult&#45;&gt;\\JsonSerializable -->
<g id="edge13" class="edge">
<title>\\billythekid\\v12finance\\models\\responses\\DownloadDocumentResult&#45;&gt;\\JsonSerializable</title>
<path fill="none" stroke="#000000" stroke-dasharray="1,5" d="M225.0383,-437.2541C198.7873,-440.2594 169.8064,-443.5772 144.0758,-446.5229"/>
<polygon fill="none" stroke="#000000" points="143.552,-443.0599 134.015,-447.6747 144.3482,-450.0145 143.552,-443.0599"/>
</g>
<!-- \\billythekid\\v12finance\\models\\responses\\ResponseError -->
<g id="node12" class="node">
<title>\\billythekid\\v12finance\\models\\responses\\ResponseError</title>
<polygon fill="none" stroke="#000000" points="356.6863,-392 255.058,-392 255.058,-356 356.6863,-356 356.6863,-392"/>
<text text-anchor="middle" x="305.8721" y="-370.7" font-family="Courier,monospace" font-size="11.00" fill="#000000">ResponseError</text>
</g>
<!-- \\billythekid\\v12finance\\models\\responses\\ResponseError&#45;&gt;\\JsonSerializable -->
<g id="edge16" class="edge">
<title>\\billythekid\\v12finance\\models\\responses\\ResponseError&#45;&gt;\\JsonSerializable</title>
<path fill="none" stroke="#000000" stroke-dasharray="1,5" d="M254.7403,-380.7736C229.4007,-385.0157 198.6186,-391.5166 172.0582,-401 148.9209,-409.2611 124.5471,-421.9927 105.4264,-433.019"/>
<polygon fill="none" stroke="#000000" points="103.6148,-430.024 96.7629,-438.105 107.1587,-436.0606 103.6148,-430.024"/>
</g>
<!-- \\billythekid\\v12finance\\models\\Order -->
<g id="node13" class="node">
<title>\\billythekid\\v12finance\\models\\Order</title>
<polygon fill="none" stroke="#000000" points="332.8721,-338 278.8721,-338 278.8721,-302 332.8721,-302 332.8721,-338"/>
<text text-anchor="middle" x="305.8721" y="-316.7" font-family="Courier,monospace" font-size="11.00" fill="#000000">Order</text>
</g>
<!-- \\billythekid\\v12finance\\models\\Order&#45;&gt;\\JsonSerializable -->
<g id="edge2" class="edge">
<title>\\billythekid\\v12finance\\models\\Order&#45;&gt;\\JsonSerializable</title>
<path fill="none" stroke="#000000" stroke-dasharray="1,5" d="M278.8119,-319.874C250.5287,-320.8372 205.6711,-325.529 172.0582,-344 135.3271,-364.1845 104.6291,-402.5443 86.787,-428.4466"/>
<polygon fill="none" stroke="#000000" points="83.6875,-426.7844 81.0234,-437.0388 89.5008,-430.6839 83.6875,-426.7844"/>
</g>
<!-- \\billythekid\\v12finance\\models\\Retailer -->
<g id="node14" class="node">
<title>\\billythekid\\v12finance\\models\\Retailer</title>
<polygon fill="none" stroke="#000000" points="340.181,-284 271.5633,-284 271.5633,-248 340.181,-248 340.181,-284"/>
<text text-anchor="middle" x="305.8721" y="-262.7" font-family="Courier,monospace" font-size="11.00" fill="#000000">Retailer</text>
</g>
<!-- \\billythekid\\v12finance\\models\\Retailer&#45;&gt;\\JsonSerializable -->
<g id="edge3" class="edge">
<title>\\billythekid\\v12finance\\models\\Retailer&#45;&gt;\\JsonSerializable</title>
<path fill="none" stroke="#000000" stroke-dasharray="1,5" d="M271.3834,-265.6571C242.5045,-266.9738 201.4171,-272.7449 172.0582,-293 123.7933,-326.2985 93.5969,-390.6349 79.4865,-427.4187"/>
<polygon fill="none" stroke="#000000" points="76.1236,-426.4213 75.9316,-437.0144 82.6877,-428.8531 76.1236,-426.4213"/>
</g>
<!-- \\billythekid\\v12finance\\models\\Customer -->
<g id="node15" class="node">
<title>\\billythekid\\v12finance\\models\\Customer</title>
<polygon fill="none" stroke="#000000" points="340.181,-230 271.5633,-230 271.5633,-194 340.181,-194 340.181,-230"/>
<text text-anchor="middle" x="305.8721" y="-208.7" font-family="Courier,monospace" font-size="11.00" fill="#000000">Customer</text>
</g>
<!-- \\billythekid\\v12finance\\models\\Customer&#45;&gt;\\JsonSerializable -->
<g id="edge4" class="edge">
<title>\\billythekid\\v12finance\\models\\Customer&#45;&gt;\\JsonSerializable</title>
<path fill="none" stroke="#000000" stroke-dasharray="1,5" d="M271.3154,-210.7585C242.0026,-211.4721 200.328,-216.8641 172.0582,-239 111.0159,-286.7975 84.7179,-379.9673 74.9714,-426.7578"/>
<polygon fill="none" stroke="#000000" points="71.4912,-426.3157 72.9865,-436.8044 78.3585,-427.6725 71.4912,-426.3157"/>
</g>
<!-- \\billythekid\\v12finance\\models\\FinanceProduct -->
<g id="node16" class="node">
<title>\\billythekid\\v12finance\\models\\FinanceProduct</title>
<polygon fill="none" stroke="#000000" points="360.288,-176 251.4563,-176 251.4563,-140 360.288,-140 360.288,-176"/>
<text text-anchor="middle" x="305.8721" y="-154.7" font-family="Courier,monospace" font-size="11.00" fill="#000000">FinanceProduct</text>
</g>
<!-- \\billythekid\\v12finance\\models\\FinanceProduct&#45;&gt;\\JsonSerializable -->
<g id="edge8" class="edge">
<title>\\billythekid\\v12finance\\models\\FinanceProduct&#45;&gt;\\JsonSerializable</title>
<path fill="none" stroke="#000000" stroke-dasharray="1,5" d="M251.3826,-157.1437C224.7446,-159.4429 193.8214,-166.5086 172.0582,-185 97.772,-248.1182 77.4695,-371.2168 72.0027,-426.6928"/>
<polygon fill="none" stroke="#000000" points="68.4992,-426.5768 71.0955,-436.8486 75.4714,-427.1996 68.4992,-426.5768"/>
</g>
<!-- \\billythekid\\v12finance\\models\\OrderLine -->
<g id="node17" class="node">
<title>\\billythekid\\v12finance\\models\\OrderLine</title>
<polygon fill="none" stroke="#000000" points="343.7829,-122 267.9613,-122 267.9613,-86 343.7829,-86 343.7829,-122"/>
<text text-anchor="middle" x="305.8721" y="-100.7" font-family="Courier,monospace" font-size="11.00" fill="#000000">OrderLine</text>
</g>
<!-- \\billythekid\\v12finance\\models\\OrderLine&#45;&gt;\\JsonSerializable -->
<g id="edge9" class="edge">
<title>\\billythekid\\v12finance\\models\\OrderLine&#45;&gt;\\JsonSerializable</title>
<path fill="none" stroke="#000000" stroke-dasharray="1,5" d="M268.1435,-101.8425C238.514,-102.2231 198.0511,-107.6254 172.0582,-131 127.0122,-171.5084 88.5539,-355.6813 75.1229,-426.8315"/>
<polygon fill="none" stroke="#000000" points="71.6453,-426.3888 73.2549,-436.8607 78.5269,-427.6707 71.6453,-426.3888"/>
</g>
<!-- \\billythekid\\v12finance\\V12FinanceClient -->
<g id="node18" class="node">
<title>\\billythekid\\v12finance\\V12FinanceClient</title>
<polygon fill="none" stroke="#000000" points="366.4899,-68 245.2543,-68 245.2543,-32 366.4899,-32 366.4899,-68"/>
<text text-anchor="middle" x="305.8721" y="-46.7" font-family="Courier,monospace" font-size="11.00" fill="#000000">V12FinanceClient</text>
</g>
</g>
</svg>
